<svg xmlns="http://www.w3.org/2000/svg" xmlns:xlink="http://www.w3.org/1999/xlink" xmlns:lucid="lucid" width="1127" height="912"><g transform="translate(-26.500000000000014 -79)" lucid:page-tab-id="0_0"><path d="M0 0h1200v1120H0z" fill="#abddf3"/><path d="M172.5 105a5 5 0 0 1 5-5h210a5 5 0 0 1 5 5v170a5 5 0 0 1-5 5h-210a5 5 0 0 1-5-5z" stroke="#3d4752" stroke-width="2" fill="#fff"/><path d="M172.5 140.5h220m-220 69.54h220" stroke="#3d4752" stroke-width="2" fill="none"/><use xlink:href="#a" transform="matrix(1,0,0,1,180.5,108) translate(69.1904296875 19.48291015625)"/><use xlink:href="#b" transform="matrix(1,0,0,1,184.5,148.5126953125) translate(0 21.7265625)"/><use xlink:href="#c" transform="matrix(1,0,0,1,184.5,148.5126953125) translate(129.8232421875 21.7265625)"/><use xlink:href="#d" transform="matrix(1,0,0,1,184.5,148.5126953125) translate(0 46.2392578125)"/><use xlink:href="#e" transform="matrix(1,0,0,1,184.5,148.5126953125) translate(113.5546875 46.2392578125)"/><use xlink:href="#f" transform="matrix(1,0,0,1,184.5,218.0380859375) translate(0 21.7265625)"/><use xlink:href="#g" transform="matrix(1,0,0,1,184.5,218.0380859375) translate(0 46.2392578125)"/><path d="M172.5 405a5 5 0 0 1 5-5h210a5 5 0 0 1 5 5v190a5 5 0 0 1-5 5h-210a5 5 0 0 1-5-5z" stroke="#3d4752" stroke-width="2" fill="#fff"/><path d="M172.5 440.5h220m-220 92.45h220" stroke="#3d4752" stroke-width="2" fill="none"/><use xlink:href="#h" transform="matrix(1,0,0,1,180.5,408) translate(74.75390625 19.48291015625)"/><use xlink:href="#i" transform="matrix(1,0,0,1,184.5,448.5126953125) translate(0 20.97021484375)"/><use xlink:href="#c" transform="matrix(1,0,0,1,184.5,448.5126953125) translate(132.3720703125 20.97021484375)"/><use xlink:href="#j" transform="matrix(1,0,0,1,184.5,448.5126953125) translate(0 45.48291015625)"/><use xlink:href="#c" transform="matrix(1,0,0,1,184.5,448.5126953125) translate(132.626953125 45.48291015625)"/><use xlink:href="#k" transform="matrix(1,0,0,1,184.5,448.5126953125) translate(0 69.99560546875)"/><use xlink:href="#e" transform="matrix(1,0,0,1,184.5,448.5126953125) translate(113.2822265625 69.99560546875)"/><use xlink:href="#l" transform="matrix(1,0,0,1,184.5,540.9472639097082) translate(0 20.7265625)"/><use xlink:href="#m" transform="matrix(1,0,0,1,184.5,540.9472639097082) translate(0 45.2392578125)"/><path d="M732.5 105a5 5 0 0 1 5-5h310a5 5 0 0 1 5 5v270a5 5 0 0 1-5 5h-310a5 5 0 0 1-5-5z" stroke="#3d4752" stroke-width="2" fill="#fff"/><path d="M732.5 140.5h320m-320 93.87h320" stroke="#3d4752" stroke-width="2" fill="none"/><use xlink:href="#n" transform="matrix(1,0,0,1,740.5,108) translate(110.9462890625 19.48291015625)"/><use xlink:href="#o" transform="matrix(1,0,0,1,744.5,148.5126953125) translate(0 21.47021484375)"/><use xlink:href="#c" transform="matrix(1,0,0,1,744.5,148.5126953125) translate(66.6123046875 21.47021484375)"/><use xlink:href="#p" transform="matrix(1,0,0,1,744.5,148.5126953125) translate(0 45.98291015625)"/><use xlink:href="#c" transform="matrix(1,0,0,1,744.5,148.5126953125) translate(85.5966796875 45.98291015625)"/><use xlink:href="#q" transform="matrix(1,0,0,1,744.5,148.5126953125) translate(0 70.49560546875)"/><use xlink:href="#e" transform="matrix(1,0,0,1,744.5,148.5126953125) translate(100.40625 70.49560546875)"/><use xlink:href="#r" transform="matrix(1,0,0,1,744.5,242.36867778046548) translate(0 22.95751953125)"/><use xlink:href="#s" transform="matrix(1,0,0,1,744.5,242.36867778046548) translate(0 47.47021484375)"/><use xlink:href="#t" transform="matrix(1,0,0,1,744.5,242.36867778046548) translate(0 71.98291015625)"/><use xlink:href="#u" transform="matrix(1,0,0,1,744.5,242.36867778046548) translate(0 96.49560546875)"/><use xlink:href="#v" transform="matrix(1,0,0,1,744.5,242.36867778046548) translate(0 121.00830078125)"/><path d="M932.5 535a5 5 0 0 1 5-5h190a5 5 0 0 1 5 5v270a5 5 0 0 1-5 5h-190a5 5 0 0 1-5-5z" stroke="#3d4752" stroke-width="2" fill="#fff"/><path d="M932.5 570.5h200m-200 119.56h200" stroke="#3d4752" stroke-width="2" fill="none"/><use xlink:href="#w" transform="matrix(1,0,0,1,940.5,538) translate(69.73291015625 19.48291015625)"/><use xlink:href="#x" transform="matrix(1,0,0,1,944.5,578.5126953125) translate(0 22.2138671875)"/><use xlink:href="#y" transform="matrix(1,0,0,1,944.5,578.5126953125) translate(102.6298828125 22.2138671875)"/><use xlink:href="#z" transform="matrix(1,0,0,1,944.5,578.5126953125) translate(0 46.7265625)"/><use xlink:href="#c" transform="matrix(1,0,0,1,944.5,578.5126953125) translate(112.1572265625 46.7265625)"/><use xlink:href="#A" transform="matrix(1,0,0,1,944.5,578.5126953125) translate(0 71.2392578125)"/><use xlink:href="#B" transform="matrix(1,0,0,1,944.5,578.5126953125) translate(114.4072265625 71.2392578125)"/><use xlink:href="#C" transform="matrix(1,0,0,1,944.5,578.5126953125) translate(0 95.751953125)"/><use xlink:href="#e" transform="matrix(1,0,0,1,944.5,578.5126953125) translate(53.4375 95.751953125)"/><use xlink:href="#D" transform="matrix(1,0,0,1,944.5,698.0634765625) translate(0 22.2138671875)"/><use xlink:href="#E" transform="matrix(1,0,0,1,944.5,698.0634765625) translate(0 46.7265625)"/><use xlink:href="#F" transform="matrix(1,0,0,1,944.5,698.0634765625) translate(0 71.2392578125)"/><use xlink:href="#G" transform="matrix(1,0,0,1,944.5,698.0634765625) translate(0 95.751953125)"/><path d="M630 635a5 5 0 0 1 5-5h200a5 5 0 0 1 5 5v170a5 5 0 0 1-5 5H635a5 5 0 0 1-5-5z" stroke="#3d4752" stroke-width="2" fill="#fff"/><path d="M630 670.5h210m-210 69.54h210" stroke="#3d4752" stroke-width="2" fill="none"/><use xlink:href="#H" transform="matrix(1,0,0,1,638,638) translate(61.38671875 19.48291015625)"/><use xlink:href="#I" transform="matrix(1,0,0,1,642,678.5126953125) translate(0 21.7265625)"/><use xlink:href="#c" transform="matrix(1,0,0,1,642,678.5126953125) translate(79.330078125 21.7265625)"/><use xlink:href="#J" transform="matrix(1,0,0,1,642,678.5126953125) translate(0 46.2392578125)"/><use xlink:href="#e" transform="matrix(1,0,0,1,642,678.5126953125) translate(106.1103515625 46.2392578125)"/><use xlink:href="#K" transform="matrix(1,0,0,1,642,748.0380859375) translate(0 21.7265625)"/><use xlink:href="#v" transform="matrix(1,0,0,1,642,748.0380859375) translate(0 46.2392578125)"/><path d="M47.5 705a5 5 0 0 1 5-5h200a5 5 0 0 1 5 5v117a5 5 0 0 1-5 5h-200a5 5 0 0 1-5-5z" stroke="#3d4752" stroke-width="2" fill="#fff"/><path d="M47.5 740.5h210m-210 42.8h210" stroke="#3d4752" stroke-width="2" fill="none"/><use xlink:href="#L" transform="matrix(1,0,0,1,55.500000000000014,708) translate(29.130859375 19.48291015625)"/><use xlink:href="#M" transform="matrix(1,0,0,1,55.500000000000014,708) translate(120.02734375 19.48291015625)"/><use xlink:href="#N" transform="matrix(1,0,0,1,59.500000000000014,748.5126953125) translate(0 20.48291015625)"/><use xlink:href="#O" transform="matrix(1,0,0,1,59.500000000000014,748.5126953125) translate(124.0400390625 20.48291015625)"/><use xlink:href="#P" transform="matrix(1,0,0,1,59.500000000000014,791.3068810379697) translate(0 20.98291015625)"/><path d="M307.5 705a5 5 0 0 1 5-5h200a5 5 0 0 1 5 5v123a5 5 0 0 1-5 5h-200a5 5 0 0 1-5-5z" stroke="#3d4752" stroke-width="2" fill="#fff"/><path d="M307.5 740.5h210m-210 46.02h210" stroke="#3d4752" stroke-width="2" fill="none"/><g><use xlink:href="#Q" transform="matrix(1,0,0,1,315.5,708) translate(38.517578125 19.48291015625)"/><use xlink:href="#M" transform="matrix(1,0,0,1,315.5,708) translate(110.640625 19.48291015625)"/></g><g><use xlink:href="#R" transform="matrix(1,0,0,1,319.5,748.5126953125) translate(0 22.48291015625)"/><use xlink:href="#O" transform="matrix(1,0,0,1,319.5,748.5126953125) translate(125.19140625 22.48291015625)"/></g><g><use xlink:href="#S" transform="matrix(1,0,0,1,319.5,794.525390625) translate(0 22.48291015625)"/></g><path d="M282.5 398v-86.25" stroke="#3d4752" stroke-width="2" fill="none"/><path d="M283.5 399h-2v-1.03h2z" stroke="#3d4752" stroke-width=".05" fill="#3d4752"/><path d="M282.5 282.4l14.85 14.86-14.85 15.15-14.85-15.14z" stroke="#3d4752" stroke-width="2" fill="#3d4752"/><g><use xlink:href="#T" transform="matrix(1,0,0,1,248.2255859375,307.4159040244223) translate(0 19.2392578125)"/></g><g><use xlink:href="#U" transform="matrix(1,0,0,1,254.4169921875,364.9285578059348) translate(0 19.2392578125)"/></g><path d="M394.4 467.57l336.2-161.44" stroke="#3d4752" stroke-width="2" fill="none"/><path d="M394.86 468.46l-1.36.65v-2.2l.5-.25zM731.5 306.8l-.5.24-.86-1.8 1.36-.66z" stroke="#3d4752" stroke-width=".05" fill="#3d4752"/><g><use xlink:href="#V" transform="matrix(1,0,0,1,412.8324315080403,415.5146642539993) translate(0 19.2392578125)"/></g><g><use xlink:href="#W" transform="matrix(1,0,0,1,683.786622232536,287.189814749365) translate(0 19.2392578125)"/></g><path d="M153.1 698.2l56.33-77.4" stroke="#3d4752" stroke-width="2" fill="none"/><path d="M153.9 698.76l-.16.24h-2.48l1.03-1.42z" stroke="#3d4752" stroke-width=".05" fill="#3d4752"/><path d="M222.68 602.6l-2.38 24.88-20.58-14.98z" stroke="#3d4752" stroke-width="2" fill="#fff"/><path d="M411.9 698.2l-59.08-77.7" stroke="#3d4752" stroke-width="2" fill="none"/><path d="M413.76 699h-2.52l-.16-.2 1.6-1.22z" stroke="#3d4752" stroke-width=".05" fill="#3d4752"/><path d="M339.2 602.56l23.14 9.43-20.26 15.4z" stroke="#3d4752" stroke-width="2" fill="#fff"/><path d="M832.17 381.93l-96.8 246.14" stroke="#3d4752" stroke-width="2" fill="none"/><path d="M833.1 382.32l-1.87-.73.23-.6h2.15zM736.3 628.4l-.22.6h-2.16l.53-1.32z" stroke="#3d4752" stroke-width=".05" fill="#3d4752"/><g><use xlink:href="#V" transform="matrix(1,0,0,1,820.76671284629,420.81606702329714) translate(0 19.2392578125)"/></g><g><use xlink:href="#U" transform="matrix(1,0,0,1,755.040869942575,588.9221077798699) translate(0 19.2392578125)"/></g><path d="M1032.02 528.12l-80.07-146.24" stroke="#3d4752" stroke-width="2" fill="none"/><path d="M1033.64 529h-2.28l-.23-.42 1.75-.96zM952.84 381.42l-1.76.96-.75-1.38h2.28z" stroke="#3d4752" stroke-width=".05" fill="#3d4752"/><path d="M630.57 665.65l-236.14-89.3M630.54 665.64l.96.36" stroke="#3d4752" stroke-width="2" fill="none"/><path d="M394.8 575.43l-.7 1.87-.6-.23v-2.14z" stroke="#3d4752" stroke-width=".05" fill="#3d4752"/><g><use xlink:href="#X" transform="matrix(1,0,0,1,432.2387990979138,565.7091113792023) translate(0 19.2392578125)"/></g><g><use xlink:href="#Y" transform="matrix(1,0,0,1,595.2801443198352,626.2681600834021) translate(0 19.2392578125)"/></g><path d="M212.5 915a5 5 0 0 1 5-5h770a5 5 0 0 1 5 5v50a5 5 0 0 1-5 5h-770a5 5 0 0 1-5-5z" stroke="#000" stroke-opacity="0" stroke-width="2" fill="#fff" fill-opacity="0"/><g><use xlink:href="#Z" transform="matrix(1,0,0,1,212.5,910) translate(28.66333333333342 34.53888888888888)"/><use xlink:href="#aa" transform="matrix(1,0,0,1,212.5,910) translate(99.01518518518525 34.53888888888888)"/><use xlink:href="#ab" transform="matrix(1,0,0,1,212.5,910) translate(184.6503703703704 34.53888888888888)"/><use xlink:href="#ac" transform="matrix(1,0,0,1,212.5,910) translate(309.0195061728395 34.53888888888888)"/><use xlink:href="#ad" transform="matrix(1,0,0,1,212.5,910) translate(355.75901234567897 34.53888888888888)"/><use xlink:href="#ae" transform="matrix(1,0,0,1,212.5,910) translate(462.33802469135793 34.53888888888888)"/><use xlink:href="#af" transform="matrix(1,0,0,1,212.5,910) translate(647.9213580246912 34.53888888888888)"/></g><defs><path fill="#3d4752" d="M954-63C853 0 774 20 614 20 266 20 92-171 92-553c0-369 188-586 549-586 129 0 245 25 348 76l-90 236c-84-31-156-66-258-66-159 0-238 113-238 338 0 219 79 328 238 328 137 0 223-38 313-97v261" id="ag"/><path fill="#3d4752" d="M618-1141c286 0 465 117 465 396V0H870l-59-152h-8C704-33 632 18 432 20 216 22 86-113 86-334c0-119 44-202 124-262 109-82 356-99 570-100 11-142-39-219-174-219-89 0-194 27-315 81l-101-206c129-67 271-101 428-101zm-71 938c137 0 235-88 233-223v-92c-190 3-382 4-381 186 0 86 49 129 148 129" id="ah"/><path fill="#3d4752" d="M498-350c-2 85 52 126 133 127 53 0 117-12 192-35v227C747 3 654 20 543 20c-247 0-350-124-350-370v-539H47v-129l168-102 88-236h195v238h313v229H498v539" id="ai"/><path fill="#3d4752" d="M465 0H160v-1556h305V0" id="aj"/><path fill="#3d4752" d="M633-893c-183 0-230 133-230 332s48 336 232 336c183 0 229-137 229-336s-47-332-231-332zm4-246c347 5 535 225 539 578S978 25 631 20C283 15 96-208 92-561c-4-355 196-583 545-578" id="ak"/><path fill="#3d4752" d="M549-1139c43 0 163 15 194 21h390v155l-175 45c32 50 48 106 48 168 2 289-261 415-574 373-89 78-53 146 121 146h190c229-1 375 93 377 311 0 131-55 232-164 304S691 492 487 492c-156 0-275-28-357-82S6 280 6 182C6 26 113-51 254-84c-55-22-119-89-117-162 3-107 68-140 144-190C169-483 89-600 90-756c1-259 185-383 459-383zM467 14c-100-2-199 51-197 144 3 184 368 146 487 90 62-30 93-71 93-123 0-42-19-70-55-87-64-30-222-23-328-24zm82-569c118 0 165-80 166-197 0-135-55-202-166-202-112 0-168 67-168 202 0 117 52 197 168 197" id="al"/><g id="a"><use transform="matrix(0.0087890625,0,0,0.0087890625,0,0)" xlink:href="#ag"/><use transform="matrix(0.0087890625,0,0,0.0087890625,9.2548828125,0)" xlink:href="#ah"/><use transform="matrix(0.0087890625,0,0,0.0087890625,20.126953125,0)" xlink:href="#ai"/><use transform="matrix(0.0087890625,0,0,0.0087890625,27.9404296875,0)" xlink:href="#ah"/><use transform="matrix(0.0087890625,0,0,0.0087890625,38.8125,0)" xlink:href="#aj"/><use transform="matrix(0.0087890625,0,0,0.0087890625,44.3056640625,0)" xlink:href="#ak"/><use transform="matrix(0.0087890625,0,0,0.0087890625,55.4501953125,0)" xlink:href="#al"/></g><path fill="#3d4752" d="M61-424v-250h537v250H61" id="am"/><path fill="#3d4752" d="M1079 0L973-348H440L334 0H0l516-1468h379L1413 0h-334zM899-608c-127-415-146-457-192-633-22 85-85 296-189 633h381" id="an"/><path fill="#3d4752" d="M639-223c202 0 242-139 242-369v-526h305V0H952l-41-143h-16C834-43 709 20 551 20c-263 0-397-147-397-409v-729h305v653c1 148 42 242 180 242" id="ao"/><path fill="#3d4752" d="M791-1139c262-1 402 148 401 410V0H887v-653c0-161-60-242-180-242-201 0-242 142-242 369V0H160v-1556h305c-1 210 6 368-14 581h16c68-109 176-164 324-164" id="ap"/><path fill="#3d4752" d="M451-930c71-134 228-244 436-200l-23 286c-220-45-399 61-399 275V0H160v-1118h231l45 188h15" id="aq"/><path fill="#3d4752" d="M795-1139c261-1 398 148 397 410V0H887v-653c-1-148-42-242-180-242-202 0-242 139-242 369V0H160v-1118h233l41 143h17c62-102 185-163 344-164" id="ar"/><path fill="#3d4752" d="M1384-895c-176 0-222 133-223 334V0H856v-653c-1-144-37-242-168-242-78 0-135 29-170 86s-53 152-53 283V0H160v-1118h233l41 143h17c56-98 174-164 325-164 167 0 281 55 340 164h27c55-99 179-165 330-164 265 2 385 133 385 410V0h-306v-653c-1-144-37-242-168-242" id="as"/><path fill="#3d4752" d="M836-686c0-141-77-236-213-236-140 0-206 98-215 236h428zm223 627C946-4 838 19 666 20 308 22 92-191 92-551c0-356 187-588 529-588 314 0 504 195 501 508v148H401c5 169 104 277 279 276 158-2 261-33 379-88v236" id="at"/><path fill="#3d4752" d="M293 27c-110 0-177-61-176-170 0-113 63-170 176-170 109-1 174 61 174 170 0 105-67 170-174 170zm0-826c-110 0-176-60-176-170 0-113 63-170 176-170 109-1 174 61 174 170 0 107-67 170-174 170" id="au"/><g id="b"><use transform="matrix(0.0087890625,0,0,0.0087890625,0,0)" xlink:href="#am"/><use transform="matrix(0.0087890625,0,0,0.0087890625,5.7919921875,0)" xlink:href="#an"/><use transform="matrix(0.0087890625,0,0,0.0087890625,18.2109375,0)" xlink:href="#ao"/><use transform="matrix(0.0087890625,0,0,0.0087890625,30.041015625,0)" xlink:href="#ai"/><use transform="matrix(0.0087890625,0,0,0.0087890625,37.8544921875,0)" xlink:href="#ap"/><use transform="matrix(0.0087890625,0,0,0.0087890625,49.6845703125,0)" xlink:href="#ak"/><use transform="matrix(0.0087890625,0,0,0.0087890625,60.8291015625,0)" xlink:href="#aq"/><use transform="matrix(0.0087890625,0,0,0.0087890625,69.0029296875,0)" xlink:href="#ar"/><use transform="matrix(0.0087890625,0,0,0.0087890625,80.8330078125,0)" xlink:href="#ah"/><use transform="matrix(0.0087890625,0,0,0.0087890625,91.705078125,0)" xlink:href="#as"/><use transform="matrix(0.0087890625,0,0,0.0087890625,109.3798828125,0)" xlink:href="#at"/><use transform="matrix(0.0087890625,0,0,0.0087890625,120.0146484375,0)" xlink:href="#au"/></g><path fill="#3d4752" d="M836-831c-99-39-182-77-306-82-139-6-173 83-92 144 51 39 327 139 383 188 71 62 119 126 119 249C940-74 747 21 463 20 305 20 202 0 94-45v-252c93 45 253 94 379 94 111 0 166-32 166-96 0-68-41-76-98-109-79-46-276-119-333-167-74-61-116-125-116-252 0-368 555-367 836-224" id="av"/><path fill="#3d4752" d="M479-1407c-1 99-61 150-166 150-111 0-166-50-166-150 0-99 55-149 166-149s166 50 166 149zM465 0H160v-1118h305V0" id="aw"/><g id="c"><use transform="matrix(0.0087890625,0,0,0.0087890625,0,0)" xlink:href="#av"/><use transform="matrix(0.0087890625,0,0,0.0087890625,8.947265625,0)" xlink:href="#ai"/><use transform="matrix(0.0087890625,0,0,0.0087890625,16.7607421875,0)" xlink:href="#aq"/><use transform="matrix(0.0087890625,0,0,0.0087890625,24.9345703125,0)" xlink:href="#aw"/><use transform="matrix(0.0087890625,0,0,0.0087890625,30.427734375,0)" xlink:href="#ar"/><use transform="matrix(0.0087890625,0,0,0.0087890625,42.2578125,0)" xlink:href="#al"/></g><path fill="#3d4752" d="M637-1325c-111 0-131 91-123 207h264v229H514V0H209v-889H41v-147l168-82c-18-311 94-449 395-449 105 0 199 16 281 47l-78 224c-61-19-118-29-170-29" id="ax"/><path fill="#3d4752" d="M782-1139c293 0 422 256 422 578 0 230-70 418-202 512-65 46-141 69-228 69-131 0-234-48-309-143h-16c32 222 9 383 16 615H160v-1610h248l43 145h14c71-111 177-166 317-166zm111 574c0-190-40-330-209-330-184 0-221 128-219 332 2 209 40 336 223 336 137 0 205-113 205-338" id="ay"/><g id="d"><use transform="matrix(0.0087890625,0,0,0.0087890625,0,0)" xlink:href="#am"/><use transform="matrix(0.0087890625,0,0,0.0087890625,5.7919921875,0)" xlink:href="#ar"/><use transform="matrix(0.0087890625,0,0,0.0087890625,17.6220703125,0)" xlink:href="#ak"/><use transform="matrix(0.0087890625,0,0,0.0087890625,28.7666015625,0)" xlink:href="#ak"/><use transform="matrix(0.0087890625,0,0,0.0087890625,39.9111328125,0)" xlink:href="#ax"/><use transform="matrix(0.0087890625,0,0,0.0087890625,46.880859375,0)" xlink:href="#ag"/><use transform="matrix(0.0087890625,0,0,0.0087890625,56.1357421875,0)" xlink:href="#ak"/><use transform="matrix(0.0087890625,0,0,0.0087890625,67.2802734375,0)" xlink:href="#ay"/><use transform="matrix(0.0087890625,0,0,0.0087890625,78.6708984375,0)" xlink:href="#aw"/><use transform="matrix(0.0087890625,0,0,0.0087890625,84.1640625,0)" xlink:href="#at"/><use transform="matrix(0.0087890625,0,0,0.0087890625,94.798828125,0)" xlink:href="#av"/><use transform="matrix(0.0087890625,0,0,0.0087890625,103.74609375,0)" xlink:href="#au"/></g><g id="e"><use transform="matrix(0.0087890625,0,0,0.0087890625,0,0)" xlink:href="#aw"/><use transform="matrix(0.0087890625,0,0,0.0087890625,5.4931640625,0)" xlink:href="#ar"/><use transform="matrix(0.0087890625,0,0,0.0087890625,17.3232421875,0)" xlink:href="#ai"/><use transform="matrix(0.0087890625,0,0,0.0087890625,25.13671875,0)" xlink:href="#at"/><use transform="matrix(0.0087890625,0,0,0.0087890625,35.771484375,0)" xlink:href="#al"/><use transform="matrix(0.0087890625,0,0,0.0087890625,45.9404296875,0)" xlink:href="#at"/><use transform="matrix(0.0087890625,0,0,0.0087890625,56.5751953125,0)" xlink:href="#aq"/></g><path fill="#3d4752" d="M475-612H88v-219h387v-390h219v390h387v219H694v385H475v-385" id="az"/><path fill="#3d4752" d="M776-240c213 0 289-110 289-329v-893h309v946c-8 356-241 531-606 536-358 5-595-195-594-540v-942h309v895c2 220 76 327 293 327" id="aA"/><path fill="#3d4752" d="M92-557c0-327 132-582 430-582 141 0 248 55 322 164h10c-38-188-18-371-23-581h306V0H903l-59-145h-13C762-35 656 20 514 20 222 20 92-237 92-557zm309 4c0 190 54 330 220 330 191 0 231-123 231-332 0-214-44-336-236-336-161 0-215 151-215 338" id="aB"/><path fill="#3d4752" d="M184 0v-1462h310V0H184" id="aC"/><g id="f"><use transform="matrix(0.0087890625,0,0,0.0087890625,0,0)" xlink:href="#az"/><use transform="matrix(0.0087890625,0,0,0.0087890625,10.2744140625,0)" xlink:href="#aA"/><use transform="matrix(0.0087890625,0,0,0.0087890625,23.8798828125,0)" xlink:href="#ay"/><use transform="matrix(0.0087890625,0,0,0.0087890625,35.2705078125,0)" xlink:href="#aB"/><use transform="matrix(0.0087890625,0,0,0.0087890625,46.6611328125,0)" xlink:href="#ah"/><use transform="matrix(0.0087890625,0,0,0.0087890625,57.533203125,0)" xlink:href="#ai"/><use transform="matrix(0.0087890625,0,0,0.0087890625,65.3466796875,0)" xlink:href="#at"/><use transform="matrix(0.0087890625,0,0,0.0087890625,75.9814453125,0)" xlink:href="#aC"/><use transform="matrix(0.0087890625,0,0,0.0087890625,81.9404296875,0)" xlink:href="#ar"/><use transform="matrix(0.0087890625,0,0,0.0087890625,93.7705078125,0)" xlink:href="#ax"/><use transform="matrix(0.0087890625,0,0,0.0087890625,100.740234375,0)" xlink:href="#ak"/></g><g id="g"><use transform="matrix(0.0087890625,0,0,0.0087890625,0,0)" xlink:href="#az"/><use transform="matrix(0.0087890625,0,0,0.0087890625,10.2744140625,0)" xlink:href="#av"/><use transform="matrix(0.0087890625,0,0,0.0087890625,19.2216796875,0)" xlink:href="#at"/><use transform="matrix(0.0087890625,0,0,0.0087890625,29.8564453125,0)" xlink:href="#ah"/><use transform="matrix(0.0087890625,0,0,0.0087890625,40.728515625,0)" xlink:href="#aq"/><use transform="matrix(0.0087890625,0,0,0.0087890625,48.5419921875,0)" xlink:href="#ag"/><use transform="matrix(0.0087890625,0,0,0.0087890625,57.796875,0)" xlink:href="#ap"/><use transform="matrix(0.0087890625,0,0,0.0087890625,69.626953125,0)" xlink:href="#aw"/><use transform="matrix(0.0087890625,0,0,0.0087890625,75.1201171875,0)" xlink:href="#ar"/><use transform="matrix(0.0087890625,0,0,0.0087890625,86.9501953125,0)" xlink:href="#al"/></g><path fill="#3d4752" d="M1268-424c0 285-235 424-537 424H184v-1462c456 17 1047-96 1047 370 0 167-86 294-225 316v10c175 38 262 140 262 342zm-355-627c0-133-104-157-256-157H494v325h180c151-2 239-31 239-168zM696-256c158 0 250-52 250-199 0-121-87-182-260-182H494v381h202" id="aD"/><path fill="#3d4752" d="M453-608l133-170 313-340h344L799-633 1270 0H918L596-453 465-348V0H160v-1556h305v694l-16 254h4" id="aE"/><g id="h"><use transform="matrix(0.0087890625,0,0,0.0087890625,0,0)" xlink:href="#aD"/><use transform="matrix(0.0087890625,0,0,0.0087890625,12.09375,0)" xlink:href="#ak"/><use transform="matrix(0.0087890625,0,0,0.0087890625,23.23828125,0)" xlink:href="#ak"/><use transform="matrix(0.0087890625,0,0,0.0087890625,34.3828125,0)" xlink:href="#aE"/><use transform="matrix(0.0087890625,0,0,0.0087890625,45.544921875,0)" xlink:href="#av"/></g><path fill="#3d4752" d="M1481 0h-394L451-1106h-9c33 431 14 683 19 1106H184v-1462h391l635 1095h7c-26-429-11-678-15-1095h279V0" id="aF"/><path fill="#3d4752" d="M782-1139c292 0 422 259 422 578 0 185-39 328-116 429S907 20 774 20c-131 0-234-48-309-143h-21L393 0H160v-1556h305c-3 221 8 361-12 583h12c71-111 177-166 317-166zM465-596c-3 221 29 369 223 369 63 0 110-31 150-87 71-99 72-401-1-498-40-53-88-83-153-83-174 0-216 109-219 299" id="aG"/><g id="i"><use transform="matrix(0.0087890625,0,0,0.0087890625,0,0)" xlink:href="#am"/><use transform="matrix(0.0087890625,0,0,0.0087890625,5.7919921875,0)" xlink:href="#aF"/><use transform="matrix(0.0087890625,0,0,0.0087890625,20.42578125,0)" xlink:href="#ah"/><use transform="matrix(0.0087890625,0,0,0.0087890625,31.2978515625,0)" xlink:href="#as"/><use transform="matrix(0.0087890625,0,0,0.0087890625,48.97265625,0)" xlink:href="#at"/><use transform="matrix(0.0087890625,0,0,0.0087890625,59.607421875,0)" xlink:href="#ak"/><use transform="matrix(0.0087890625,0,0,0.0087890625,70.751953125,0)" xlink:href="#ax"/><use transform="matrix(0.0087890625,0,0,0.0087890625,77.7216796875,0)" xlink:href="#aG"/><use transform="matrix(0.0087890625,0,0,0.0087890625,89.1123046875,0)" xlink:href="#ak"/><use transform="matrix(0.0087890625,0,0,0.0087890625,100.2568359375,0)" xlink:href="#ak"/><use transform="matrix(0.0087890625,0,0,0.0087890625,111.4013671875,0)" xlink:href="#aE"/><use transform="matrix(0.0087890625,0,0,0.0087890625,122.5634765625,0)" xlink:href="#au"/></g><g id="j"><use transform="matrix(0.0087890625,0,0,0.0087890625,0,0)" xlink:href="#am"/><use transform="matrix(0.0087890625,0,0,0.0087890625,5.7919921875,0)" xlink:href="#an"/><use transform="matrix(0.0087890625,0,0,0.0087890625,18.2109375,0)" xlink:href="#ao"/><use transform="matrix(0.0087890625,0,0,0.0087890625,30.041015625,0)" xlink:href="#ai"/><use transform="matrix(0.0087890625,0,0,0.0087890625,37.8544921875,0)" xlink:href="#ap"/><use transform="matrix(0.0087890625,0,0,0.0087890625,49.6845703125,0)" xlink:href="#ak"/><use transform="matrix(0.0087890625,0,0,0.0087890625,60.8291015625,0)" xlink:href="#aq"/><use transform="matrix(0.0087890625,0,0,0.0087890625,69.0029296875,0)" xlink:href="#aF"/><use transform="matrix(0.0087890625,0,0,0.0087890625,83.63671875,0)" xlink:href="#ah"/><use transform="matrix(0.0087890625,0,0,0.0087890625,94.5087890625,0)" xlink:href="#as"/><use transform="matrix(0.0087890625,0,0,0.0087890625,112.18359375,0)" xlink:href="#at"/><use transform="matrix(0.0087890625,0,0,0.0087890625,122.818359375,0)" xlink:href="#au"/></g><g id="k"><use transform="matrix(0.0087890625,0,0,0.0087890625,0,0)" xlink:href="#am"/><use transform="matrix(0.0087890625,0,0,0.0087890625,5.7919921875,0)" xlink:href="#aF"/><use transform="matrix(0.0087890625,0,0,0.0087890625,20.42578125,0)" xlink:href="#ak"/><use transform="matrix(0.0087890625,0,0,0.0087890625,31.5703125,0)" xlink:href="#ak"/><use transform="matrix(0.0087890625,0,0,0.0087890625,42.71484375,0)" xlink:href="#ax"/><use transform="matrix(0.0087890625,0,0,0.0087890625,49.6845703125,0)" xlink:href="#aG"/><use transform="matrix(0.0087890625,0,0,0.0087890625,61.0751953125,0)" xlink:href="#ak"/><use transform="matrix(0.0087890625,0,0,0.0087890625,72.2197265625,0)" xlink:href="#ak"/><use transform="matrix(0.0087890625,0,0,0.0087890625,83.3642578125,0)" xlink:href="#aE"/><use transform="matrix(0.0087890625,0,0,0.0087890625,94.5263671875,0)" xlink:href="#av"/><use transform="matrix(0.0087890625,0,0,0.0087890625,103.4736328125,0)" xlink:href="#au"/></g><path fill="#3d4752" d="M426 0L0-1118h319l216 637c24 81 39 157 45 229h6c3-64 15-141 45-229l215-637h319L739 0H426" id="aH"/><g id="l"><use transform="matrix(0.0087890625,0,0,0.0087890625,0,0)" xlink:href="#az"/><use transform="matrix(0.0087890625,0,0,0.0087890625,10.2744140625,0)" xlink:href="#aq"/><use transform="matrix(0.0087890625,0,0,0.0087890625,18.087890625,0)" xlink:href="#at"/><use transform="matrix(0.0087890625,0,0,0.0087890625,28.72265625,0)" xlink:href="#as"/><use transform="matrix(0.0087890625,0,0,0.0087890625,46.3974609375,0)" xlink:href="#ak"/><use transform="matrix(0.0087890625,0,0,0.0087890625,57.181640625,0)" xlink:href="#aH"/><use transform="matrix(0.0087890625,0,0,0.0087890625,67.4208984375,0)" xlink:href="#at"/><use transform="matrix(0.0087890625,0,0,0.0087890625,78.0556640625,0)" xlink:href="#ax"/><use transform="matrix(0.0087890625,0,0,0.0087890625,85.025390625,0)" xlink:href="#aw"/><use transform="matrix(0.0087890625,0,0,0.0087890625,90.5185546875,0)" xlink:href="#aq"/><use transform="matrix(0.0087890625,0,0,0.0087890625,98.6923828125,0)" xlink:href="#as"/><use transform="matrix(0.0087890625,0,0,0.0087890625,116.3671875,0)" xlink:href="#ag"/><use transform="matrix(0.0087890625,0,0,0.0087890625,125.6220703125,0)" xlink:href="#ah"/><use transform="matrix(0.0087890625,0,0,0.0087890625,136.494140625,0)" xlink:href="#ai"/><use transform="matrix(0.0087890625,0,0,0.0087890625,144.3076171875,0)" xlink:href="#ah"/><use transform="matrix(0.0087890625,0,0,0.0087890625,155.1796875,0)" xlink:href="#aj"/><use transform="matrix(0.0087890625,0,0,0.0087890625,160.6728515625,0)" xlink:href="#ak"/><use transform="matrix(0.0087890625,0,0,0.0087890625,171.8173828125,0)" xlink:href="#al"/></g><g id="m"><use transform="matrix(0.0087890625,0,0,0.0087890625,0,0)" xlink:href="#az"/><use transform="matrix(0.0087890625,0,0,0.0087890625,10.2744140625,0)" xlink:href="#ah"/><use transform="matrix(0.0087890625,0,0,0.0087890625,21.146484375,0)" xlink:href="#aB"/><use transform="matrix(0.0087890625,0,0,0.0087890625,32.537109375,0)" xlink:href="#aB"/><use transform="matrix(0.0087890625,0,0,0.0087890625,43.927734375,0)" xlink:href="#ai"/><use transform="matrix(0.0087890625,0,0,0.0087890625,51.7412109375,0)" xlink:href="#ak"/><use transform="matrix(0.0087890625,0,0,0.0087890625,62.8857421875,0)" xlink:href="#ag"/><use transform="matrix(0.0087890625,0,0,0.0087890625,72.140625,0)" xlink:href="#ah"/><use transform="matrix(0.0087890625,0,0,0.0087890625,83.0126953125,0)" xlink:href="#ai"/><use transform="matrix(0.0087890625,0,0,0.0087890625,90.826171875,0)" xlink:href="#ah"/><use transform="matrix(0.0087890625,0,0,0.0087890625,101.6982421875,0)" xlink:href="#aj"/><use transform="matrix(0.0087890625,0,0,0.0087890625,107.19140625,0)" xlink:href="#ak"/><use transform="matrix(0.0087890625,0,0,0.0087890625,118.3359375,0)" xlink:href="#al"/></g><path fill="#3d4752" d="M184 0v-1462h310v1206h593V0H184" id="aI"/><g id="n"><use transform="matrix(0.0087890625,0,0,0.0087890625,0,0)" xlink:href="#aI"/><use transform="matrix(0.0087890625,0,0,0.0087890625,10.1689453125,0)" xlink:href="#aw"/><use transform="matrix(0.0087890625,0,0,0.0087890625,15.662109375,0)" xlink:href="#aG"/><use transform="matrix(0.0087890625,0,0,0.0087890625,27.052734375,0)" xlink:href="#aq"/><use transform="matrix(0.0087890625,0,0,0.0087890625,34.8662109375,0)" xlink:href="#ah"/><use transform="matrix(0.0087890625,0,0,0.0087890625,45.73828125,0)" xlink:href="#aq"/><use transform="matrix(0.0087890625,0,0,0.0087890625,53.912109375,0)" xlink:href="#aw"/><use transform="matrix(0.0087890625,0,0,0.0087890625,59.4052734375,0)" xlink:href="#ah"/><use transform="matrix(0.0087890625,0,0,0.0087890625,70.27734375,0)" xlink:href="#ar"/></g><g id="o"><use transform="matrix(0.0087890625,0,0,0.0087890625,0,0)" xlink:href="#am"/><use transform="matrix(0.0087890625,0,0,0.0087890625,5.7919921875,0)" xlink:href="#ar"/><use transform="matrix(0.0087890625,0,0,0.0087890625,17.6220703125,0)" xlink:href="#ah"/><use transform="matrix(0.0087890625,0,0,0.0087890625,28.494140625,0)" xlink:href="#as"/><use transform="matrix(0.0087890625,0,0,0.0087890625,46.1689453125,0)" xlink:href="#at"/><use transform="matrix(0.0087890625,0,0,0.0087890625,56.8037109375,0)" xlink:href="#au"/></g><g id="p"><use transform="matrix(0.0087890625,0,0,0.0087890625,0,0)" xlink:href="#am"/><use transform="matrix(0.0087890625,0,0,0.0087890625,5.7919921875,0)" xlink:href="#ah"/><use transform="matrix(0.0087890625,0,0,0.0087890625,16.6640625,0)" xlink:href="#aB"/><use transform="matrix(0.0087890625,0,0,0.0087890625,28.0546875,0)" xlink:href="#aB"/><use transform="matrix(0.0087890625,0,0,0.0087890625,39.4453125,0)" xlink:href="#aq"/><use transform="matrix(0.0087890625,0,0,0.0087890625,47.2587890625,0)" xlink:href="#at"/><use transform="matrix(0.0087890625,0,0,0.0087890625,57.8935546875,0)" xlink:href="#av"/><use transform="matrix(0.0087890625,0,0,0.0087890625,66.8408203125,0)" xlink:href="#av"/><use transform="matrix(0.0087890625,0,0,0.0087890625,75.7880859375,0)" xlink:href="#au"/></g><g id="q"><use transform="matrix(0.0087890625,0,0,0.0087890625,0,0)" xlink:href="#am"/><use transform="matrix(0.0087890625,0,0,0.0087890625,5.7919921875,0)" xlink:href="#as"/><use transform="matrix(0.0087890625,0,0,0.0087890625,23.466796875,0)" xlink:href="#ak"/><use transform="matrix(0.0087890625,0,0,0.0087890625,34.611328125,0)" xlink:href="#aG"/><use transform="matrix(0.0087890625,0,0,0.0087890625,46.001953125,0)" xlink:href="#aw"/><use transform="matrix(0.0087890625,0,0,0.0087890625,51.4951171875,0)" xlink:href="#aj"/><use transform="matrix(0.0087890625,0,0,0.0087890625,56.98828125,0)" xlink:href="#at"/><use transform="matrix(0.0087890625,0,0,0.0087890625,67.623046875,0)" xlink:href="#ar"/><use transform="matrix(0.0087890625,0,0,0.0087890625,79.453125,0)" xlink:href="#ak"/><use transform="matrix(0.0087890625,0,0,0.0087890625,90.59765625,0)" xlink:href="#au"/></g><g id="r"><use transform="matrix(0.0087890625,0,0,0.0087890625,0,0)" xlink:href="#az"/><use transform="matrix(0.0087890625,0,0,0.0087890625,10.2744140625,0)" xlink:href="#aA"/><use transform="matrix(0.0087890625,0,0,0.0087890625,23.8798828125,0)" xlink:href="#ay"/><use transform="matrix(0.0087890625,0,0,0.0087890625,35.2705078125,0)" xlink:href="#aB"/><use transform="matrix(0.0087890625,0,0,0.0087890625,46.6611328125,0)" xlink:href="#ah"/><use transform="matrix(0.0087890625,0,0,0.0087890625,57.533203125,0)" xlink:href="#ai"/><use transform="matrix(0.0087890625,0,0,0.0087890625,65.3466796875,0)" xlink:href="#at"/><use transform="matrix(0.0087890625,0,0,0.0087890625,75.9814453125,0)" xlink:href="#aw"/><use transform="matrix(0.0087890625,0,0,0.0087890625,81.474609375,0)" xlink:href="#ar"/><use transform="matrix(0.0087890625,0,0,0.0087890625,93.3046875,0)" xlink:href="#ax"/><use transform="matrix(0.0087890625,0,0,0.0087890625,100.2744140625,0)" xlink:href="#ak"/></g><g id="s"><use transform="matrix(0.0087890625,0,0,0.0087890625,0,0)" xlink:href="#az"/><use transform="matrix(0.0087890625,0,0,0.0087890625,10.2744140625,0)" xlink:href="#aC"/><use transform="matrix(0.0087890625,0,0,0.0087890625,16.2333984375,0)" xlink:href="#av"/><use transform="matrix(0.0087890625,0,0,0.0087890625,25.1806640625,0)" xlink:href="#av"/><use transform="matrix(0.0087890625,0,0,0.0087890625,34.1279296875,0)" xlink:href="#ao"/><use transform="matrix(0.0087890625,0,0,0.0087890625,45.9580078125,0)" xlink:href="#at"/><use transform="matrix(0.0087890625,0,0,0.0087890625,56.5927734375,0)" xlink:href="#aG"/><use transform="matrix(0.0087890625,0,0,0.0087890625,67.9833984375,0)" xlink:href="#ak"/><use transform="matrix(0.0087890625,0,0,0.0087890625,79.1279296875,0)" xlink:href="#ak"/><use transform="matrix(0.0087890625,0,0,0.0087890625,90.2724609375,0)" xlink:href="#aE"/><use transform="matrix(0.0087890625,0,0,0.0087890625,101.4345703125,0)" xlink:href="#av"/></g><g id="t"><use transform="matrix(0.0087890625,0,0,0.0087890625,0,0)" xlink:href="#az"/><use transform="matrix(0.0087890625,0,0,0.0087890625,10.2744140625,0)" xlink:href="#as"/><use transform="matrix(0.0087890625,0,0,0.0087890625,27.94921875,0)" xlink:href="#at"/><use transform="matrix(0.0087890625,0,0,0.0087890625,38.583984375,0)" xlink:href="#as"/><use transform="matrix(0.0087890625,0,0,0.0087890625,56.2587890625,0)" xlink:href="#aG"/><use transform="matrix(0.0087890625,0,0,0.0087890625,67.6494140625,0)" xlink:href="#at"/><use transform="matrix(0.0087890625,0,0,0.0087890625,78.2841796875,0)" xlink:href="#aq"/><use transform="matrix(0.0087890625,0,0,0.0087890625,86.4580078125,0)" xlink:href="#aC"/><use transform="matrix(0.0087890625,0,0,0.0087890625,92.4169921875,0)" xlink:href="#ar"/><use transform="matrix(0.0087890625,0,0,0.0087890625,104.2470703125,0)" xlink:href="#ax"/><use transform="matrix(0.0087890625,0,0,0.0087890625,111.216796875,0)" xlink:href="#ak"/></g><g id="u"><use transform="matrix(0.0087890625,0,0,0.0087890625,0,0)" xlink:href="#az"/><use transform="matrix(0.0087890625,0,0,0.0087890625,10.2744140625,0)" xlink:href="#av"/><use transform="matrix(0.0087890625,0,0,0.0087890625,19.2216796875,0)" xlink:href="#at"/><use transform="matrix(0.0087890625,0,0,0.0087890625,29.8564453125,0)" xlink:href="#ah"/><use transform="matrix(0.0087890625,0,0,0.0087890625,40.728515625,0)" xlink:href="#aq"/><use transform="matrix(0.0087890625,0,0,0.0087890625,48.5419921875,0)" xlink:href="#ag"/><use transform="matrix(0.0087890625,0,0,0.0087890625,57.796875,0)" xlink:href="#ap"/><use transform="matrix(0.0087890625,0,0,0.0087890625,69.626953125,0)" xlink:href="#aG"/><use transform="matrix(0.0087890625,0,0,0.0087890625,81.017578125,0)" xlink:href="#ak"/><use transform="matrix(0.0087890625,0,0,0.0087890625,92.162109375,0)" xlink:href="#ak"/><use transform="matrix(0.0087890625,0,0,0.0087890625,103.306640625,0)" xlink:href="#aE"/></g><g id="v"><use transform="matrix(0.0087890625,0,0,0.0087890625,0,0)" xlink:href="#az"/><use transform="matrix(0.0087890625,0,0,0.0087890625,10.2744140625,0)" xlink:href="#aq"/><use transform="matrix(0.0087890625,0,0,0.0087890625,18.087890625,0)" xlink:href="#at"/><use transform="matrix(0.0087890625,0,0,0.0087890625,28.72265625,0)" xlink:href="#ai"/><use transform="matrix(0.0087890625,0,0,0.0087890625,36.5361328125,0)" xlink:href="#ao"/><use transform="matrix(0.0087890625,0,0,0.0087890625,48.3662109375,0)" xlink:href="#aq"/><use transform="matrix(0.0087890625,0,0,0.0087890625,56.5400390625,0)" xlink:href="#ar"/><use transform="matrix(0.0087890625,0,0,0.0087890625,68.3701171875,0)" xlink:href="#aG"/><use transform="matrix(0.0087890625,0,0,0.0087890625,79.7607421875,0)" xlink:href="#ak"/><use transform="matrix(0.0087890625,0,0,0.0087890625,90.9052734375,0)" xlink:href="#ak"/><use transform="matrix(0.0087890625,0,0,0.0087890625,102.0498046875,0)" xlink:href="#aE"/></g><g id="w"><use transform="matrix(0.0087890625,0,0,0.0087890625,0,0)" xlink:href="#an"/><use transform="matrix(0.0087890625,0,0,0.0087890625,12.4189453125,0)" xlink:href="#aj"/><use transform="matrix(0.0087890625,0,0,0.0087890625,17.912109375,0)" xlink:href="#at"/><use transform="matrix(0.0087890625,0,0,0.0087890625,28.546875,0)" xlink:href="#aq"/><use transform="matrix(0.0087890625,0,0,0.0087890625,36.720703125,0)" xlink:href="#ai"/></g><g id="x"><use transform="matrix(0.0087890625,0,0,0.0087890625,0,0)" xlink:href="#am"/><use transform="matrix(0.0087890625,0,0,0.0087890625,5.7919921875,0)" xlink:href="#aC"/><use transform="matrix(0.0087890625,0,0,0.0087890625,11.7509765625,0)" xlink:href="#av"/><use transform="matrix(0.0087890625,0,0,0.0087890625,20.6982421875,0)" xlink:href="#av"/><use transform="matrix(0.0087890625,0,0,0.0087890625,29.6455078125,0)" xlink:href="#ao"/><use transform="matrix(0.0087890625,0,0,0.0087890625,41.4755859375,0)" xlink:href="#at"/><use transform="matrix(0.0087890625,0,0,0.0087890625,52.1103515625,0)" xlink:href="#aB"/><use transform="matrix(0.0087890625,0,0,0.0087890625,63.5009765625,0)" xlink:href="#ah"/><use transform="matrix(0.0087890625,0,0,0.0087890625,74.373046875,0)" xlink:href="#ai"/><use transform="matrix(0.0087890625,0,0,0.0087890625,82.1865234375,0)" xlink:href="#at"/><use transform="matrix(0.0087890625,0,0,0.0087890625,92.8212890625,0)" xlink:href="#au"/></g><path fill="#3d4752" d="M643-1462c464-5 754 260 754 717 0 491-297 749-799 745H184v-1462h459zm432 725c0-314-139-471-416-471H494v952h133c299 0 448-160 448-481" id="aJ"/><g id="y"><use transform="matrix(0.0087890625,0,0,0.0087890625,0,0)" xlink:href="#aJ"/><use transform="matrix(0.0087890625,0,0,0.0087890625,13.32421875,0)" xlink:href="#ah"/><use transform="matrix(0.0087890625,0,0,0.0087890625,24.1962890625,0)" xlink:href="#ai"/><use transform="matrix(0.0087890625,0,0,0.0087890625,32.009765625,0)" xlink:href="#at"/></g><g id="z"><use transform="matrix(0.0087890625,0,0,0.0087890625,0,0)" xlink:href="#am"/><use transform="matrix(0.0087890625,0,0,0.0087890625,5.7919921875,0)" xlink:href="#aD"/><use transform="matrix(0.0087890625,0,0,0.0087890625,17.8857421875,0)" xlink:href="#ak"/><use transform="matrix(0.0087890625,0,0,0.0087890625,29.0302734375,0)" xlink:href="#ak"/><use transform="matrix(0.0087890625,0,0,0.0087890625,40.1748046875,0)" xlink:href="#aE"/><use transform="matrix(0.0087890625,0,0,0.0087890625,51.3369140625,0)" xlink:href="#ar"/><use transform="matrix(0.0087890625,0,0,0.0087890625,63.1669921875,0)" xlink:href="#ah"/><use transform="matrix(0.0087890625,0,0,0.0087890625,74.0390625,0)" xlink:href="#as"/><use transform="matrix(0.0087890625,0,0,0.0087890625,91.7138671875,0)" xlink:href="#at"/><use transform="matrix(0.0087890625,0,0,0.0087890625,102.3486328125,0)" xlink:href="#au"/></g><g id="A"><use transform="matrix(0.0087890625,0,0,0.0087890625,0,0)" xlink:href="#am"/><use transform="matrix(0.0087890625,0,0,0.0087890625,5.7919921875,0)" xlink:href="#aq"/><use transform="matrix(0.0087890625,0,0,0.0087890625,13.60546875,0)" xlink:href="#at"/><use transform="matrix(0.0087890625,0,0,0.0087890625,24.240234375,0)" xlink:href="#ai"/><use transform="matrix(0.0087890625,0,0,0.0087890625,32.0537109375,0)" xlink:href="#ao"/><use transform="matrix(0.0087890625,0,0,0.0087890625,43.8837890625,0)" xlink:href="#aq"/><use transform="matrix(0.0087890625,0,0,0.0087890625,52.0576171875,0)" xlink:href="#ar"/><use transform="matrix(0.0087890625,0,0,0.0087890625,63.8876953125,0)" xlink:href="#aB"/><use transform="matrix(0.0087890625,0,0,0.0087890625,75.2783203125,0)" xlink:href="#ah"/><use transform="matrix(0.0087890625,0,0,0.0087890625,86.150390625,0)" xlink:href="#ai"/><use transform="matrix(0.0087890625,0,0,0.0087890625,93.9638671875,0)" xlink:href="#at"/><use transform="matrix(0.0087890625,0,0,0.0087890625,104.5986328125,0)" xlink:href="#au"/></g><g id="B"><use transform="matrix(0.0087890625,0,0,0.0087890625,0,0)" xlink:href="#aB"/><use transform="matrix(0.0087890625,0,0,0.0087890625,11.390625,0)" xlink:href="#ah"/><use transform="matrix(0.0087890625,0,0,0.0087890625,22.2626953125,0)" xlink:href="#ai"/><use transform="matrix(0.0087890625,0,0,0.0087890625,30.076171875,0)" xlink:href="#at"/></g><path fill="#3d4752" d="M489 0H184v-1462h838v254H489v377h496v253H489V0" id="aK"/><g id="C"><use transform="matrix(0.0087890625,0,0,0.0087890625,0,0)" xlink:href="#am"/><use transform="matrix(0.0087890625,0,0,0.0087890625,5.7919921875,0)" xlink:href="#aK"/><use transform="matrix(0.0087890625,0,0,0.0087890625,15.6708984375,0)" xlink:href="#aw"/><use transform="matrix(0.0087890625,0,0,0.0087890625,21.1640625,0)" xlink:href="#ar"/><use transform="matrix(0.0087890625,0,0,0.0087890625,32.994140625,0)" xlink:href="#at"/><use transform="matrix(0.0087890625,0,0,0.0087890625,43.62890625,0)" xlink:href="#au"/></g><g id="D"><use transform="matrix(0.0087890625,0,0,0.0087890625,0,0)" xlink:href="#az"/><use transform="matrix(0.0087890625,0,0,0.0087890625,10.2744140625,0)" xlink:href="#ax"/><use transform="matrix(0.0087890625,0,0,0.0087890625,17.244140625,0)" xlink:href="#aw"/><use transform="matrix(0.0087890625,0,0,0.0087890625,22.7373046875,0)" xlink:href="#ar"/><use transform="matrix(0.0087890625,0,0,0.0087890625,34.5673828125,0)" xlink:href="#at"/><use transform="matrix(0.0087890625,0,0,0.0087890625,45.2021484375,0)" xlink:href="#ag"/><use transform="matrix(0.0087890625,0,0,0.0087890625,54.45703125,0)" xlink:href="#ah"/><use transform="matrix(0.0087890625,0,0,0.0087890625,65.3291015625,0)" xlink:href="#aj"/></g><path fill="#3d4752" d="M1079 0c-64-298-133-592-202-885h-7L666 0H338L20-1118h304c74 305 149 505 192 862h6c25-292 125-597 189-862h336c64 284 150 545 182 862h6c7-69 49-308 65-367l134-495h299L1411 0h-332" id="aL"/><g id="E"><use transform="matrix(0.0087890625,0,0,0.0087890625,0,0)" xlink:href="#az"/><use transform="matrix(0.0087890625,0,0,0.0087890625,10.2744140625,0)" xlink:href="#aH"/><use transform="matrix(0.0087890625,0,0,0.0087890625,20.513671875,0)" xlink:href="#aw"/><use transform="matrix(0.0087890625,0,0,0.0087890625,26.0068359375,0)" xlink:href="#at"/><use transform="matrix(0.0087890625,0,0,0.0087890625,36.28125,0)" xlink:href="#aL"/><use transform="matrix(0.0087890625,0,0,0.0087890625,51.6884765625,0)" xlink:href="#an"/><use transform="matrix(0.0087890625,0,0,0.0087890625,64.107421875,0)" xlink:href="#aj"/><use transform="matrix(0.0087890625,0,0,0.0087890625,69.6005859375,0)" xlink:href="#at"/><use transform="matrix(0.0087890625,0,0,0.0087890625,80.2353515625,0)" xlink:href="#aq"/><use transform="matrix(0.0087890625,0,0,0.0087890625,88.4091796875,0)" xlink:href="#ai"/></g><g id="F"><use transform="matrix(0.0087890625,0,0,0.0087890625,0,0)" xlink:href="#az"/><use transform="matrix(0.0087890625,0,0,0.0087890625,10.2744140625,0)" xlink:href="#av"/><use transform="matrix(0.0087890625,0,0,0.0087890625,19.2216796875,0)" xlink:href="#at"/><use transform="matrix(0.0087890625,0,0,0.0087890625,29.8564453125,0)" xlink:href="#ar"/><use transform="matrix(0.0087890625,0,0,0.0087890625,41.6865234375,0)" xlink:href="#aB"/><use transform="matrix(0.0087890625,0,0,0.0087890625,53.0771484375,0)" xlink:href="#ai"/><use transform="matrix(0.0087890625,0,0,0.0087890625,60.890625,0)" xlink:href="#ak"/><use transform="matrix(0.0087890625,0,0,0.0087890625,72.03515625,0)" xlink:href="#aj"/><use transform="matrix(0.0087890625,0,0,0.0087890625,77.5283203125,0)" xlink:href="#aw"/><use transform="matrix(0.0087890625,0,0,0.0087890625,83.021484375,0)" xlink:href="#aG"/><use transform="matrix(0.0087890625,0,0,0.0087890625,94.412109375,0)" xlink:href="#aq"/><use transform="matrix(0.0087890625,0,0,0.0087890625,102.2255859375,0)" xlink:href="#ah"/><use transform="matrix(0.0087890625,0,0,0.0087890625,113.09765625,0)" xlink:href="#aq"/><use transform="matrix(0.0087890625,0,0,0.0087890625,121.271484375,0)" xlink:href="#aw"/><use transform="matrix(0.0087890625,0,0,0.0087890625,126.7646484375,0)" xlink:href="#ah"/><use transform="matrix(0.0087890625,0,0,0.0087890625,137.63671875,0)" xlink:href="#ar"/></g><path fill="#3d4752" d="M0-1118h334l211 629c18 55 30 119 37 194h6c7-69 23-133 43-194l207-629h327L692 143C611 389 392 544 70 475V233c95 21 196 18 262-37 50-42 89-123 112-204" id="aM"/><g id="G"><use transform="matrix(0.0087890625,0,0,0.0087890625,0,0)" xlink:href="#az"/><use transform="matrix(0.0087890625,0,0,0.0087890625,10.2744140625,0)" xlink:href="#aB"/><use transform="matrix(0.0087890625,0,0,0.0087890625,21.6650390625,0)" xlink:href="#at"/><use transform="matrix(0.0087890625,0,0,0.0087890625,32.2998046875,0)" xlink:href="#aj"/><use transform="matrix(0.0087890625,0,0,0.0087890625,37.79296875,0)" xlink:href="#at"/><use transform="matrix(0.0087890625,0,0,0.0087890625,48.427734375,0)" xlink:href="#ai"/><use transform="matrix(0.0087890625,0,0,0.0087890625,56.2412109375,0)" xlink:href="#at"/><use transform="matrix(0.0087890625,0,0,0.0087890625,66.8759765625,0)" xlink:href="#ah"/><use transform="matrix(0.0087890625,0,0,0.0087890625,77.748046875,0)" xlink:href="#aj"/><use transform="matrix(0.0087890625,0,0,0.0087890625,83.2412109375,0)" xlink:href="#at"/><use transform="matrix(0.0087890625,0,0,0.0087890625,93.8759765625,0)" xlink:href="#aq"/><use transform="matrix(0.0087890625,0,0,0.0087890625,102.0498046875,0)" xlink:href="#ai"/><use transform="matrix(0.0087890625,0,0,0.0087890625,109.86328125,0)" xlink:href="#aG"/><use transform="matrix(0.0087890625,0,0,0.0087890625,120.8935546875,0)" xlink:href="#aM"/><use transform="matrix(0.0087890625,0,0,0.0087890625,131.1328125,0)" xlink:href="#ar"/><use transform="matrix(0.0087890625,0,0,0.0087890625,142.962890625,0)" xlink:href="#ak"/></g><path fill="#3d4752" d="M596-1225c-134-8-223 103-163 219 11 21 33 41 61 60s93 53 196 102c137 65 230 130 281 196s76 147 76 242c-3 286-231 426-539 426C352 20 214-9 94-68v-288c159 68 260 115 438 120 123 3 211-41 211-155 0-73-44-105-95-141-63-46-329-160-390-220-78-77-147-167-147-315 0-273 208-420 495-416 177 2 298 46 434 103l-100 241c-131-51-199-78-344-86" id="aN"/><g id="H"><use transform="matrix(0.0087890625,0,0,0.0087890625,0,0)" xlink:href="#aN"/><use transform="matrix(0.0087890625,0,0,0.0087890625,9.9140625,0)" xlink:href="#ai"/><use transform="matrix(0.0087890625,0,0,0.0087890625,17.7275390625,0)" xlink:href="#ao"/><use transform="matrix(0.0087890625,0,0,0.0087890625,29.5576171875,0)" xlink:href="#aB"/><use transform="matrix(0.0087890625,0,0,0.0087890625,40.9482421875,0)" xlink:href="#at"/><use transform="matrix(0.0087890625,0,0,0.0087890625,51.5830078125,0)" xlink:href="#ar"/><use transform="matrix(0.0087890625,0,0,0.0087890625,63.4130859375,0)" xlink:href="#ai"/></g><g id="I"><use transform="matrix(0.0087890625,0,0,0.0087890625,0,0)" xlink:href="#am"/><use transform="matrix(0.0087890625,0,0,0.0087890625,5.7919921875,0)" xlink:href="#aN"/><use transform="matrix(0.0087890625,0,0,0.0087890625,15.7060546875,0)" xlink:href="#aF"/><use transform="matrix(0.0087890625,0,0,0.0087890625,30.33984375,0)" xlink:href="#ah"/><use transform="matrix(0.0087890625,0,0,0.0087890625,41.2119140625,0)" xlink:href="#as"/><use transform="matrix(0.0087890625,0,0,0.0087890625,58.88671875,0)" xlink:href="#at"/><use transform="matrix(0.0087890625,0,0,0.0087890625,69.521484375,0)" xlink:href="#au"/></g><g id="J"><use transform="matrix(0.0087890625,0,0,0.0087890625,0,0)" xlink:href="#am"/><use transform="matrix(0.0087890625,0,0,0.0087890625,5.7919921875,0)" xlink:href="#aN"/><use transform="matrix(0.0087890625,0,0,0.0087890625,15.7060546875,0)" xlink:href="#ai"/><use transform="matrix(0.0087890625,0,0,0.0087890625,23.51953125,0)" xlink:href="#ao"/><use transform="matrix(0.0087890625,0,0,0.0087890625,35.349609375,0)" xlink:href="#aB"/><use transform="matrix(0.0087890625,0,0,0.0087890625,46.740234375,0)" xlink:href="#at"/><use transform="matrix(0.0087890625,0,0,0.0087890625,57.375,0)" xlink:href="#ar"/><use transform="matrix(0.0087890625,0,0,0.0087890625,69.205078125,0)" xlink:href="#ai"/><use transform="matrix(0.0087890625,0,0,0.0087890625,77.0185546875,0)" xlink:href="#aC"/><use transform="matrix(0.0087890625,0,0,0.0087890625,82.9775390625,0)" xlink:href="#aJ"/><use transform="matrix(0.0087890625,0,0,0.0087890625,96.3017578125,0)" xlink:href="#au"/></g><g id="K"><use transform="matrix(0.0087890625,0,0,0.0087890625,0,0)" xlink:href="#az"/><use transform="matrix(0.0087890625,0,0,0.0087890625,10.2744140625,0)" xlink:href="#ag"/><use transform="matrix(0.0087890625,0,0,0.0087890625,19.529296875,0)" xlink:href="#ap"/><use transform="matrix(0.0087890625,0,0,0.0087890625,31.359375,0)" xlink:href="#at"/><use transform="matrix(0.0087890625,0,0,0.0087890625,41.994140625,0)" xlink:href="#ag"/><use transform="matrix(0.0087890625,0,0,0.0087890625,51.2490234375,0)" xlink:href="#aE"/><use transform="matrix(0.0087890625,0,0,0.0087890625,62.05078125,0)" xlink:href="#ak"/><use transform="matrix(0.0087890625,0,0,0.0087890625,73.1953125,0)" xlink:href="#ao"/><use transform="matrix(0.0087890625,0,0,0.0087890625,85.025390625,0)" xlink:href="#ai"/><use transform="matrix(0.0087890625,0,0,0.0087890625,92.8388671875,0)" xlink:href="#aG"/><use transform="matrix(0.0087890625,0,0,0.0087890625,104.2294921875,0)" xlink:href="#ak"/><use transform="matrix(0.0087890625,0,0,0.0087890625,115.3740234375,0)" xlink:href="#ak"/><use transform="matrix(0.0087890625,0,0,0.0087890625,126.5185546875,0)" xlink:href="#aE"/></g><g id="L"><use transform="matrix(0.0087890625,0,0,0.0087890625,0,0)" xlink:href="#aq"/><use transform="matrix(0.0087890625,0,0,0.0087890625,7.8134765625,0)" xlink:href="#at"/><use transform="matrix(0.0087890625,0,0,0.0087890625,18.4482421875,0)" xlink:href="#ax"/><use transform="matrix(0.0087890625,0,0,0.0087890625,25.41796875,0)" xlink:href="#at"/><use transform="matrix(0.0087890625,0,0,0.0087890625,36.052734375,0)" xlink:href="#aq"/><use transform="matrix(0.0087890625,0,0,0.0087890625,43.8662109375,0)" xlink:href="#at"/><use transform="matrix(0.0087890625,0,0,0.0087890625,54.5009765625,0)" xlink:href="#ar"/><use transform="matrix(0.0087890625,0,0,0.0087890625,66.3310546875,0)" xlink:href="#ag"/><use transform="matrix(0.0087890625,0,0,0.0087890625,75.5859375,0)" xlink:href="#at"/></g><g id="M"><use transform="matrix(0.0087890625,0,0,0.0087890625,0,0)" xlink:href="#aG"/><use transform="matrix(0.0087890625,0,0,0.0087890625,11.390625,0)" xlink:href="#ak"/><use transform="matrix(0.0087890625,0,0,0.0087890625,22.53515625,0)" xlink:href="#ak"/><use transform="matrix(0.0087890625,0,0,0.0087890625,33.6796875,0)" xlink:href="#aE"/></g><path fill="#3d4752" d="M881-1016c0-191-181-195-387-192v395c210 7 387-9 387-203zm313-8c0 197-121 322-272 387 220 329 363 541 430 637h-344L659-561H494V0H184v-1462h426c360 1 584 108 584 438" id="aO"/><g id="N"><use transform="matrix(0.0087890625,0,0,0.0087890625,0,0)" xlink:href="#am"/><use transform="matrix(0.0087890625,0,0,0.0087890625,5.7919921875,0)" xlink:href="#aO"/><use transform="matrix(0.0087890625,0,0,0.0087890625,17.6748046875,0)" xlink:href="#aD"/><use transform="matrix(0.0087890625,0,0,0.0087890625,29.7685546875,0)" xlink:href="#ak"/><use transform="matrix(0.0087890625,0,0,0.0087890625,40.9130859375,0)" xlink:href="#ak"/><use transform="matrix(0.0087890625,0,0,0.0087890625,52.0576171875,0)" xlink:href="#aE"/><use transform="matrix(0.0087890625,0,0,0.0087890625,63.2197265625,0)" xlink:href="#ar"/><use transform="matrix(0.0087890625,0,0,0.0087890625,75.0498046875,0)" xlink:href="#ah"/><use transform="matrix(0.0087890625,0,0,0.0087890625,85.921875,0)" xlink:href="#as"/><use transform="matrix(0.0087890625,0,0,0.0087890625,103.5966796875,0)" xlink:href="#at"/><use transform="matrix(0.0087890625,0,0,0.0087890625,114.2314453125,0)" xlink:href="#au"/></g><g id="O"><use transform="matrix(0.0087890625,0,0,0.0087890625,0,0)" xlink:href="#av"/><use transform="matrix(0.0087890625,0,0,0.0087890625,8.947265625,0)" xlink:href="#ai"/><use transform="matrix(0.0087890625,0,0,0.0087890625,16.7607421875,0)" xlink:href="#aq"/><use transform="matrix(0.0087890625,0,0,0.0087890625,24.9345703125,0)" xlink:href="#aw"/><use transform="matrix(0.0087890625,0,0,0.0087890625,30.427734375,0)" xlink:href="#ar"/><use transform="matrix(0.0087890625,0,0,0.0087890625,42.2578125,0)" xlink:href="#al"/></g><g id="P"><use transform="matrix(0.0087890625,0,0,0.0087890625,0,0)" xlink:href="#az"/><use transform="matrix(0.0087890625,0,0,0.0087890625,10.2744140625,0)" xlink:href="#av"/><use transform="matrix(0.0087890625,0,0,0.0087890625,19.2216796875,0)" xlink:href="#at"/><use transform="matrix(0.0087890625,0,0,0.0087890625,29.8564453125,0)" xlink:href="#ah"/><use transform="matrix(0.0087890625,0,0,0.0087890625,40.728515625,0)" xlink:href="#aq"/><use transform="matrix(0.0087890625,0,0,0.0087890625,48.5419921875,0)" xlink:href="#ag"/><use transform="matrix(0.0087890625,0,0,0.0087890625,57.796875,0)" xlink:href="#ap"/><use transform="matrix(0.0087890625,0,0,0.0087890625,69.626953125,0)" xlink:href="#aq"/><use transform="matrix(0.0087890625,0,0,0.0087890625,77.4404296875,0)" xlink:href="#at"/><use transform="matrix(0.0087890625,0,0,0.0087890625,88.0751953125,0)" xlink:href="#ax"/><use transform="matrix(0.0087890625,0,0,0.0087890625,95.044921875,0)" xlink:href="#aG"/><use transform="matrix(0.0087890625,0,0,0.0087890625,106.435546875,0)" xlink:href="#ak"/><use transform="matrix(0.0087890625,0,0,0.0087890625,117.580078125,0)" xlink:href="#ak"/><use transform="matrix(0.0087890625,0,0,0.0087890625,128.724609375,0)" xlink:href="#aE"/></g><g id="Q"><use transform="matrix(0.0087890625,0,0,0.0087890625,0,0)" xlink:href="#al"/><use transform="matrix(0.0087890625,0,0,0.0087890625,10.1689453125,0)" xlink:href="#at"/><use transform="matrix(0.0087890625,0,0,0.0087890625,20.8037109375,0)" xlink:href="#ar"/><use transform="matrix(0.0087890625,0,0,0.0087890625,32.6337890625,0)" xlink:href="#at"/><use transform="matrix(0.0087890625,0,0,0.0087890625,43.2685546875,0)" xlink:href="#aq"/><use transform="matrix(0.0087890625,0,0,0.0087890625,51.08203125,0)" xlink:href="#ah"/><use transform="matrix(0.0087890625,0,0,0.0087890625,61.9541015625,0)" xlink:href="#aj"/></g><path fill="#3d4752" d="M438-727c0 290 111 485 381 489 65 0 130-7 197-20v-305H739v-258h580v758c-169 55-315 82-520 83-455 2-680-287-680-753 0-470 293-750 764-750 150 0 295 30 434 90l-103 248c-107-53-218-80-333-80-276-2-443 212-443 498" id="aP"/><g id="R"><use transform="matrix(0.0087890625,0,0,0.0087890625,0,0)" xlink:href="#am"/><use transform="matrix(0.0087890625,0,0,0.0087890625,5.7919921875,0)" xlink:href="#aP"/><use transform="matrix(0.0087890625,0,0,0.0087890625,18.826171875,0)" xlink:href="#aD"/><use transform="matrix(0.0087890625,0,0,0.0087890625,30.919921875,0)" xlink:href="#ak"/><use transform="matrix(0.0087890625,0,0,0.0087890625,42.064453125,0)" xlink:href="#ak"/><use transform="matrix(0.0087890625,0,0,0.0087890625,53.208984375,0)" xlink:href="#aE"/><use transform="matrix(0.0087890625,0,0,0.0087890625,64.37109375,0)" xlink:href="#ar"/><use transform="matrix(0.0087890625,0,0,0.0087890625,76.201171875,0)" xlink:href="#ah"/><use transform="matrix(0.0087890625,0,0,0.0087890625,87.0732421875,0)" xlink:href="#as"/><use transform="matrix(0.0087890625,0,0,0.0087890625,104.748046875,0)" xlink:href="#at"/><use transform="matrix(0.0087890625,0,0,0.0087890625,115.3828125,0)" xlink:href="#au"/></g><g id="S"><use transform="matrix(0.0087890625,0,0,0.0087890625,0,0)" xlink:href="#az"/><use transform="matrix(0.0087890625,0,0,0.0087890625,10.2744140625,0)" xlink:href="#av"/><use transform="matrix(0.0087890625,0,0,0.0087890625,19.2216796875,0)" xlink:href="#at"/><use transform="matrix(0.0087890625,0,0,0.0087890625,29.8564453125,0)" xlink:href="#ah"/><use transform="matrix(0.0087890625,0,0,0.0087890625,40.728515625,0)" xlink:href="#aq"/><use transform="matrix(0.0087890625,0,0,0.0087890625,48.5419921875,0)" xlink:href="#ag"/><use transform="matrix(0.0087890625,0,0,0.0087890625,57.796875,0)" xlink:href="#ap"/><use transform="matrix(0.0087890625,0,0,0.0087890625,69.626953125,0)" xlink:href="#al"/><use transform="matrix(0.0087890625,0,0,0.0087890625,79.7958984375,0)" xlink:href="#at"/><use transform="matrix(0.0087890625,0,0,0.0087890625,90.4306640625,0)" xlink:href="#ar"/><use transform="matrix(0.0087890625,0,0,0.0087890625,102.2607421875,0)" xlink:href="#at"/><use transform="matrix(0.0087890625,0,0,0.0087890625,112.8955078125,0)" xlink:href="#aq"/><use transform="matrix(0.0087890625,0,0,0.0087890625,120.708984375,0)" xlink:href="#ah"/><use transform="matrix(0.0087890625,0,0,0.0087890625,131.5810546875,0)" xlink:href="#aj"/><use transform="matrix(0.0087890625,0,0,0.0087890625,137.07421875,0)" xlink:href="#aG"/><use transform="matrix(0.0087890625,0,0,0.0087890625,148.46484375,0)" xlink:href="#ak"/><use transform="matrix(0.0087890625,0,0,0.0087890625,159.609375,0)" xlink:href="#ak"/><use transform="matrix(0.0087890625,0,0,0.0087890625,170.75390625,0)" xlink:href="#aE"/></g><path fill="#3d4752" d="M846 0H537c2-380-6-768 8-1137-108 112-167 145-275 236l-149-186 471-375h254V0" id="aQ"/><use transform="matrix(0.0087890625,0,0,0.0087890625,0,0)" xlink:href="#aQ" id="T"/><path fill="#3d4752" d="M688-1556l-41 368 373-104 33 252-340 24 223 297-227 121-156-313-137 311-236-119 221-297-338-26 39-250 365 104-41-368h262" id="aR"/><g id="U"><use transform="matrix(0.0087890625,0,0,0.0087890625,0,0)" xlink:href="#az"/><use transform="matrix(0.0087890625,0,0,0.0087890625,10.2744140625,0)" xlink:href="#aR"/></g><path fill="#3d4752" d="M293 27c-110 0-177-61-176-170 0-113 63-170 176-170 109-1 174 61 174 170 0 105-67 170-174 170" id="aS"/><g id="V"><use transform="matrix(0.0087890625,0,0,0.0087890625,0,0)" xlink:href="#az"/><use transform="matrix(0.0087890625,0,0,0.0087890625,10.2744140625,0)" xlink:href="#aQ"/><use transform="matrix(0.0087890625,0,0,0.0087890625,20.548828125,0)" xlink:href="#aS"/><use transform="matrix(0.0087890625,0,0,0.0087890625,25.681640625,0)" xlink:href="#aS"/><use transform="matrix(0.0087890625,0,0,0.0087890625,30.814453125,0)" xlink:href="#aR"/></g><path fill="#3d4752" d="M459-215C424-80 366 79 283 264H63c43-177 77-345 101-502h280" id="aT"/><path fill="#3d4752" d="M600-1483c268 0 463 136 463 396 0 168-62 262-145 371-76 99-325 321-451 442v14h637V0H82v-215c165-170 448-439 580-603 57-71 91-127 94-233 3-114-68-174-178-174-148 0-233 73-332 150L78-1274c156-133 262-209 522-209" id="aU"/><g id="W"><use transform="matrix(0.0087890625,0,0,0.0087890625,0,0)" xlink:href="#az"/><use transform="matrix(0.0087890625,0,0,0.0087890625,10.2744140625,0)" xlink:href="#aQ"/><use transform="matrix(0.0087890625,0,0,0.0087890625,20.548828125,0)" xlink:href="#aT"/><use transform="matrix(0.0087890625,0,0,0.0087890625,25.76953125,0)" xlink:href="#aU"/></g><path fill="#3d4752" d="M557-1483c267 0 490 104 490 348 0 203-138 325-316 365v6c211 26 359 121 359 338 0 311-250 446-590 446C341 20 201-6 78-59v-263c102 51 243 97 389 97 185 0 299-48 299-219 0-69-30-115-84-146-67-39-240-46-379-43v-237h113c195-4 327-25 327-197 0-111-69-166-208-166-135 0-211 43-312 107L80-1339c133-96 292-144 477-144" id="aV"/><g id="X"><use transform="matrix(0.0087890625,0,0,0.0087890625,0,0)" xlink:href="#aQ"/><use transform="matrix(0.0087890625,0,0,0.0087890625,10.2744140625,0)" xlink:href="#aS"/><use transform="matrix(0.0087890625,0,0,0.0087890625,15.4072265625,0)" xlink:href="#aS"/><use transform="matrix(0.0087890625,0,0,0.0087890625,20.5400390625,0)" xlink:href="#aV"/></g><g id="Y"><use transform="matrix(0.0087890625,0,0,0.0087890625,0,0)" xlink:href="#az"/><use transform="matrix(0.0087890625,0,0,0.0087890625,10.2744140625,0)" xlink:href="#aQ"/></g><path d="M238-95c0 69-44 99-111 99C63 4 22-25 22-93v-155h51v151c-1 38 19 59 55 60 90 1 49-130 58-211h52v153" id="aW"/><path d="M230 0l2-204L168 0h-37L68-204 70 0H24v-248h70l56 185 57-185h69V0h-46" id="aX"/><path d="M24 0v-248h52v208h133V0H24" id="aY"/><g id="Z"><use transform="matrix(0.08086419753086417,0,0,0.08086419753086417,0,0)" xlink:href="#aW"/><use transform="matrix(0.08086419753086417,0,0,0.08086419753086417,20.94382716049382,0)" xlink:href="#aX"/><use transform="matrix(0.08086419753086417,0,0,0.08086419753086417,45.122222222222206,0)" xlink:href="#aY"/></g><path d="M67-125c0 53 21 87 73 88 37 1 54-22 65-47l45 17C233-25 199 4 140 4 58 4 20-42 15-125 8-235 124-281 211-232c18 10 29 29 36 50l-46 12c-8-25-30-41-62-41-52 0-71 34-72 86" id="aZ"/><path d="M25 0v-261h50V0H25" id="ba"/><path d="M133-34C117-15 103 5 69 4 32 3 11-16 11-54c-1-60 55-63 116-61 1-26-3-47-28-47-18 1-26 9-28 27l-52-2c7-38 36-58 82-57s74 22 75 68l1 82c-1 14 12 18 25 15v27c-30 8-71 5-69-32zm-48 3c29 0 43-24 42-57-32 0-66-3-65 30 0 17 8 27 23 27" id="bb"/><path d="M137-138c1-29-70-34-71-4 15 46 118 7 119 86 1 83-164 76-172 9l43-7c4 19 20 25 44 25 33 8 57-30 24-41C81-84 22-81 20-136c-2-80 154-74 161-7" id="bc"/><g id="aa"><use transform="matrix(0.08086419753086417,0,0,0.08086419753086417,0,0)" xlink:href="#aZ"/><use transform="matrix(0.08086419753086417,0,0,0.08086419753086417,20.94382716049382,0)" xlink:href="#ba"/><use transform="matrix(0.08086419753086417,0,0,0.08086419753086417,29.03024691358024,0)" xlink:href="#bb"/><use transform="matrix(0.08086419753086417,0,0,0.08086419753086417,45.20308641975308,0)" xlink:href="#bc"/><use transform="matrix(0.08086419753086417,0,0,0.08086419753086417,61.37592592592591,0)" xlink:href="#bc"/></g><path d="M24-248c120-7 223 5 221 122C244-46 201 0 124 0H24v-248zM76-40c74 7 117-18 117-86 0-67-45-88-117-82v168" id="bd"/><path d="M25-224v-37h50v37H25zM25 0v-190h50V0H25" id="be"/><path d="M195-6C206 82 75 100 31 46c-4-6-6-13-8-21l49-6c3 16 16 24 34 25 40 0 42-37 40-79-11 22-30 35-61 35-53 0-70-43-70-97 0-56 18-96 73-97 30 0 46 14 59 34l2-30h47zm-90-29c32 0 41-27 41-63 0-35-9-62-40-62-32 0-39 29-40 63 0 36 9 62 39 62" id="bf"/><path d="M135-150c-39-12-60 13-60 57V0H25l-1-190h47c2 13-1 29 3 40 6-28 27-53 61-41v41" id="bg"/><path d="M220-157c-53 9-28 100-34 157h-49v-107c1-27-5-49-29-50C55-147 81-57 75 0H25l-1-190h47c2 12-1 28 3 38 10-53 101-56 108 0 13-22 24-43 59-42 82 1 51 116 57 194h-49v-107c-1-25-5-48-29-50" id="bh"/><g id="ab"><use transform="matrix(0.08086419753086417,0,0,0.08086419753086417,0,0)" xlink:href="#bd"/><use transform="matrix(0.08086419753086417,0,0,0.08086419753086417,20.94382716049382,0)" xlink:href="#be"/><use transform="matrix(0.08086419753086417,0,0,0.08086419753086417,29.03024691358024,0)" xlink:href="#bb"/><use transform="matrix(0.08086419753086417,0,0,0.08086419753086417,45.20308641975308,0)" xlink:href="#bf"/><use transform="matrix(0.08086419753086417,0,0,0.08086419753086417,62.91234567901233,0)" xlink:href="#bg"/><use transform="matrix(0.08086419753086417,0,0,0.08086419753086417,74.23333333333332,0)" xlink:href="#bb"/><use transform="matrix(0.08086419753086417,0,0,0.08086419753086417,90.40617283950616,0)" xlink:href="#bh"/></g><path d="M121-226c-27-7-43 5-38 36h38v33H83V0H34v-157H6v-33h28c-9-59 32-81 87-68v32" id="bi"/><path d="M110-194c64 0 96 36 96 99 0 64-35 99-97 99-61 0-95-36-95-99 0-62 34-99 96-99zm-1 164c35 0 45-28 45-65 0-40-10-65-43-65-34 0-45 26-45 65 0 36 10 65 43 65" id="bj"/><g id="ac"><use transform="matrix(0.08086419753086417,0,0,0.08086419753086417,0,0)" xlink:href="#bi"/><use transform="matrix(0.08086419753086417,0,0,0.08086419753086417,9.622839506172836,0)" xlink:href="#bj"/><use transform="matrix(0.08086419753086417,0,0,0.08086419753086417,27.332098765432086,0)" xlink:href="#bg"/></g><path d="M135-194c52 0 70 43 70 98 0 56-19 99-73 100-30 1-46-15-58-35L72 0H24l1-261h50v104c11-23 29-37 60-37zM114-30c31 0 40-27 40-66 0-37-7-63-39-63s-41 28-41 65c0 36 8 64 40 64" id="bk"/><path d="M123 10C108 53 80 86 19 72V37c35 8 53-11 59-39L3-190h52l48 148c12-52 28-100 44-148h51" id="bl"/><g id="ad"><use transform="matrix(0.08086419753086417,0,0,0.08086419753086417,0,0)" xlink:href="#aY"/><use transform="matrix(0.08086419753086417,0,0,0.08086419753086417,17.70925925925925,0)" xlink:href="#be"/><use transform="matrix(0.08086419753086417,0,0,0.08086419753086417,25.79567901234567,0)" xlink:href="#bk"/><use transform="matrix(0.08086419753086417,0,0,0.08086419753086417,43.50493827160492,0)" xlink:href="#bg"/><use transform="matrix(0.08086419753086417,0,0,0.08086419753086417,54.8259259259259,0)" xlink:href="#bb"/><use transform="matrix(0.08086419753086417,0,0,0.08086419753086417,70.99876543209874,0)" xlink:href="#bg"/><use transform="matrix(0.08086419753086417,0,0,0.08086419753086417,82.31975308641972,0)" xlink:href="#bl"/></g><path d="M135-194c87-1 58 113 63 194h-50c-7-57 23-157-34-157-59 0-34 97-39 157H25l-1-190h47c2 12-1 28 3 38 12-26 28-41 61-42" id="bm"/><path d="M185-48c-13 30-37 53-82 52C43 2 14-33 14-96s30-98 90-98c62 0 83 45 84 108H66c0 31 8 55 39 56 18 0 30-7 34-22zm-45-69c5-46-57-63-70-21-2 6-4 13-4 21h74" id="bn"/><path d="M115-3C79 11 28 4 28-45v-112H4v-33h27l15-45h31v45h36v33H77v99c-1 23 16 31 38 25v30" id="bo"/><g id="ae"><use transform="matrix(0.08086419753086417,0,0,0.08086419753086417,0,0)" xlink:href="#aX"/><use transform="matrix(0.08086419753086417,0,0,0.08086419753086417,24.178395061728388,0)" xlink:href="#bb"/><use transform="matrix(0.08086419753086417,0,0,0.08086419753086417,40.35123456790122,0)" xlink:href="#bm"/><use transform="matrix(0.08086419753086417,0,0,0.08086419753086417,58.06049382716048,0)" xlink:href="#bb"/><use transform="matrix(0.08086419753086417,0,0,0.08086419753086417,74.2333333333333,0)" xlink:href="#bf"/><use transform="matrix(0.08086419753086417,0,0,0.08086419753086417,91.94259259259256,0)" xlink:href="#bn"/><use transform="matrix(0.08086419753086417,0,0,0.08086419753086417,108.1154320987654,0)" xlink:href="#bh"/><use transform="matrix(0.08086419753086417,0,0,0.08086419753086417,133.99197530864194,0)" xlink:href="#bn"/><use transform="matrix(0.08086419753086417,0,0,0.08086419753086417,150.16481481481478,0)" xlink:href="#bm"/><use transform="matrix(0.08086419753086417,0,0,0.08086419753086417,167.87407407407403,0)" xlink:href="#bo"/></g><path d="M169-182c-1-43-94-46-97-3 18 66 151 10 154 114 3 95-165 93-204 36-6-8-10-19-12-30l50-8c3 46 112 56 116 5-17-69-150-10-154-114-4-87 153-88 188-35 5 8 8 18 10 28" id="bp"/><g id="af"><use transform="matrix(0.08086419753086417,0,0,0.08086419753086417,0,0)" xlink:href="#bp"/><use transform="matrix(0.08086419753086417,0,0,0.08086419753086417,19.4074074074074,0)" xlink:href="#bl"/><use transform="matrix(0.08086419753086417,0,0,0.08086419753086417,35.58024691358024,0)" xlink:href="#bc"/><use transform="matrix(0.08086419753086417,0,0,0.08086419753086417,51.75308641975308,0)" xlink:href="#bo"/><use transform="matrix(0.08086419753086417,0,0,0.08086419753086417,61.37592592592591,0)" xlink:href="#bn"/><use transform="matrix(0.08086419753086417,0,0,0.08086419753086417,77.54876543209875,0)" xlink:href="#bh"/></g></defs></g></svg>